<mxfile host="app.diagrams.net" modified="2022-09-21T04:21:21.907Z" agent="5.0 (Windows NT 10.0; Win64; x64) AppleWebKit/537.36 (KHTML, like Gecko) Chrome/105.0.0.0 Safari/537.36" etag="eokhRVj2g7M_yU3_PqiY" version="20.3.2" type="github">
  <diagram id="prtHgNgQTEPvFCAcTncT" name="Page-1">
    <mxGraphModel dx="906" dy="497" grid="1" gridSize="10" guides="1" tooltips="1" connect="1" arrows="1" fold="1" page="1" pageScale="1" pageWidth="827" pageHeight="1169" math="0" shadow="0">
      <root>
        <mxCell id="0" />
        <mxCell id="1" parent="0" />
        <mxCell id="CijKE6sO3IoXTaLPwiFw-17" value="&lt;font face=&quot;宋体&quot;&gt;获取信号特性参数&lt;/font&gt;" style="rounded=0;whiteSpace=wrap;html=1;fontSize=24;fillColor=none;" parent="1" vertex="1">
          <mxGeometry x="230" y="170" width="340" height="50" as="geometry" />
        </mxCell>
        <mxCell id="CijKE6sO3IoXTaLPwiFw-18" value="&lt;font face=&quot;宋体&quot;&gt;数据预处理，特征提取&lt;/font&gt;" style="rounded=0;whiteSpace=wrap;html=1;fontSize=24;fillColor=none;" parent="1" vertex="1">
          <mxGeometry x="230" y="270" width="340" height="50" as="geometry" />
        </mxCell>
        <mxCell id="CijKE6sO3IoXTaLPwiFw-19" value="&lt;span style=&quot;font-family: &amp;quot;Times New Roman&amp;quot;, serif;&quot; lang=&quot;EN-US&quot;&gt;&lt;font style=&quot;font-size: 24px;&quot;&gt;CAACO-SVM&amp;nbsp;&lt;/font&gt;&lt;/span&gt;&lt;font face=&quot;宋体&quot;&gt;算法计算鉴定&lt;/font&gt;" style="rounded=0;whiteSpace=wrap;html=1;fontSize=24;fillColor=none;" parent="1" vertex="1">
          <mxGeometry x="230" y="370" width="340" height="50" as="geometry" />
        </mxCell>
        <mxCell id="CijKE6sO3IoXTaLPwiFw-20" value="&lt;font face=&quot;宋体&quot;&gt;输出毒品信号检测结果&lt;/font&gt;" style="rounded=0;whiteSpace=wrap;html=1;fontSize=24;fillColor=none;" parent="1" vertex="1">
          <mxGeometry x="230" y="460" width="340" height="50" as="geometry" />
        </mxCell>
        <mxCell id="CijKE6sO3IoXTaLPwiFw-22" value="" style="shape=flexArrow;endArrow=classic;html=1;rounded=0;fontSize=24;exitX=0.5;exitY=1;exitDx=0;exitDy=0;" parent="1" edge="1">
          <mxGeometry width="50" height="50" relative="1" as="geometry">
            <mxPoint x="399.5" y="220" as="sourcePoint" />
            <mxPoint x="399.5" y="270" as="targetPoint" />
          </mxGeometry>
        </mxCell>
        <mxCell id="CijKE6sO3IoXTaLPwiFw-23" value="" style="shape=flexArrow;endArrow=classic;html=1;rounded=0;fontSize=24;exitX=0.5;exitY=1;exitDx=0;exitDy=0;" parent="1" edge="1">
          <mxGeometry width="50" height="50" relative="1" as="geometry">
            <mxPoint x="399.5" y="320" as="sourcePoint" />
            <mxPoint x="399.5" y="370" as="targetPoint" />
          </mxGeometry>
        </mxCell>
        <mxCell id="CijKE6sO3IoXTaLPwiFw-24" value="" style="shape=flexArrow;endArrow=classic;html=1;rounded=0;fontSize=24;exitX=0.5;exitY=1;exitDx=0;exitDy=0;" parent="1" edge="1">
          <mxGeometry width="50" height="50" relative="1" as="geometry">
            <mxPoint x="399.5" y="420" as="sourcePoint" />
            <mxPoint x="400" y="460" as="targetPoint" />
          </mxGeometry>
        </mxCell>
        <mxCell id="ClJPf6CTKpAUNpyXUOQn-1" value="&lt;font face=&quot;宋体&quot; style=&quot;font-size: 24px;&quot;&gt;开始&lt;/font&gt;" style="rounded=1;whiteSpace=wrap;html=1;fillColor=none;" parent="1" vertex="1">
          <mxGeometry x="340" y="80" width="120" height="50" as="geometry" />
        </mxCell>
        <mxCell id="ClJPf6CTKpAUNpyXUOQn-2" value="" style="endArrow=classic;html=1;rounded=0;fontSize=24;exitX=0.5;exitY=1;exitDx=0;exitDy=0;entryX=0.5;entryY=0;entryDx=0;entryDy=0;" parent="1" source="ClJPf6CTKpAUNpyXUOQn-1" target="CijKE6sO3IoXTaLPwiFw-17" edge="1">
          <mxGeometry width="50" height="50" relative="1" as="geometry">
            <mxPoint x="390" y="290" as="sourcePoint" />
            <mxPoint x="440" y="240" as="targetPoint" />
          </mxGeometry>
        </mxCell>
        <mxCell id="ClJPf6CTKpAUNpyXUOQn-3" value="&lt;font face=&quot;宋体&quot; style=&quot;font-size: 24px;&quot;&gt;结束&lt;/font&gt;" style="rounded=1;whiteSpace=wrap;html=1;fillColor=none;" parent="1" vertex="1">
          <mxGeometry x="340" y="550" width="120" height="50" as="geometry" />
        </mxCell>
        <mxCell id="ClJPf6CTKpAUNpyXUOQn-4" value="" style="endArrow=classic;html=1;rounded=0;fontSize=24;exitX=0.5;exitY=1;exitDx=0;exitDy=0;entryX=0.5;entryY=0;entryDx=0;entryDy=0;" parent="1" source="CijKE6sO3IoXTaLPwiFw-20" target="ClJPf6CTKpAUNpyXUOQn-3" edge="1">
          <mxGeometry width="50" height="50" relative="1" as="geometry">
            <mxPoint x="390" y="570" as="sourcePoint" />
            <mxPoint x="440" y="520" as="targetPoint" />
          </mxGeometry>
        </mxCell>
      </root>
    </mxGraphModel>
  </diagram>
</mxfile>
